# xmcd
#
# Track frame offsets:
#	150
#	13285
#	26635
#	39160
#	53960
#	68967
#	82285
#	92485
#	104485
#	117310
#	128657
#	143860
#	159010
#	169085
#	184085
#	196360
#	206242
#	219067
#
# Disc length: 3096
#
# Revision: 1
# Processed by: cddbd v1.5.1PL0 Copyright (c) Steve Scherf et al.
# Submitted via: CDex 1.51
# Normalized: r0:DSETVAR1,TDELIM( - )
#
DISCID=fb0c1612
DTITLE=Various Artist - The Golden Days of Jazz - The Thirties/Fourties
DYEAR=1995
DGENRE=Jazz
TTITLE0=Harlem Jazz: Duke Ellington and Cab Calloway - Cottom club stomp
TTITLE1=Harlem Jazz: Duke Ellington and Cab Calloway - Ring dem bells
TTITLE2=Harlem Jazz: Duke Ellington and Cab Calloway - Jumpin' jive
TTITLE3=Harlem Jazz: Duke Ellington and Cab Calloway - Minnie the moocher
TTITLE4=Jimmie Lunceford - Battle axe
TTITLE5=Jimmie Lunceford - O.K. for baby
TTITLE6=Jimmie Lunceford - State and tioga stomp
TTITLE7=The Great Combo's - I've got my fingers crossed
TTITLE8=The Great Combo's - Christopher Columbus
TTITLE9=The Great Combo's - China boy
TTITLE10=The Great Combo's - Vibraphone blues
TTITLE11=The Great Combo's - Ring dem bells
TTITLE12=The Great Combo's - Hot mallets
TTITLE13=The Great Combo's - Summit ridge drive
TTITLE14=The Great Combo's - Special delivery stomp
TTITLE15=Big Band Classics - I wanna be a rug cutter
TTITLE16=Big Band Classics - One o'clock jump
TTITLE17=Big Band Classics - King porter stomp
EXTD=YEAR: 1995
EXTT0=
EXTT1=
EXTT2=
EXTT3=
EXTT4=
EXTT5=
EXTT6=
EXTT7=
EXTT8=
EXTT9=
EXTT10=
EXTT11=
EXTT12=
EXTT13=
EXTT14=
EXTT15=
EXTT16=
EXTT17=
PLAYORDER=
